<?xml version="1.0" encoding="UTF-8" standalone="no"?>
<svg
   viewBox="0 0 1524.0835 1428.1356"
   version="1.1"
   id="svg1"
   sodipodi:docname="dollar.svg"
   width="1524.0835"
   height="1428.1356"
   inkscape:version="1.3.2 (091e20ef0f, 2023-11-25, custom)"
   xmlns:inkscape="http://www.inkscape.org/namespaces/inkscape"
   xmlns:sodipodi="http://sodipodi.sourceforge.net/DTD/sodipodi-0.dtd"
   xmlns="http://www.w3.org/2000/svg"
   xmlns:svg="http://www.w3.org/2000/svg">
  <defs
     id="defs1" />
  <sodipodi:namedview
     id="namedview1"
     pagecolor="#ffffff"
     bordercolor="#666666"
     borderopacity="1.0"
     inkscape:showpageshadow="2"
     inkscape:pageopacity="0.0"
     inkscape:pagecheckerboard="0"
     inkscape:deskcolor="#d1d1d1"
     inkscape:zoom="0.29762014"
     inkscape:cx="537.59803"
     inkscape:cy="606.47777"
     inkscape:window-width="1248"
     inkscape:window-height="680"
     inkscape:window-x="2002"
     inkscape:window-y="261"
     inkscape:window-maximized="0"
     inkscape:current-layer="svg1" />
  <!--!Font Awesome Free 6.5.2 by @fontawesome - https://fontawesome.com License - https://fontawesome.com/license/free Copyright 2024 Fonticons, Inc.-->
  <path
     d="m 63.029467,0 c 7.66413,0 13.85606,6.19193 13.85606,13.85606 v 15.45817 c 0.6928,0.0866 1.34231,0.1732 2.03511,0.3031 0.1732,0.0433 0.3031,0.0433 0.4763,0.0866 l 20.784093,3.81042 c 7.53424,1.3856 12.51376,8.61674 11.12815,16.10767 -1.3856,7.49093 -8.61674,12.51375 -16.107673,11.12815 l -20.56759,-3.76712 c -13.55296,-1.99181 -25.50381,-0.6495 -33.90405,2.68461 -8.40024,3.33412 -11.77765,7.92394 -12.55705,12.16736 -0.86601,4.63312 -0.2165,7.23113 0.5196,8.83324 0.7794,1.6887 2.38151,3.59391 5.54242,5.71562 7.05793,4.63312 17.88298,7.66414 31.91224,11.38795 l 1.25571,0.3464 c 12.38385,3.29082 27.53892,7.27444 38.796973,14.63547 6.14863,4.02692 11.95085,9.48274 15.54477,17.10357 3.68052,7.75074 4.45992,16.41078 2.77121,25.63372 -2.98771,16.45407 -14.33236,27.45232 -28.404923,33.21125 -5.93213,2.42481 -12.38386,3.98361 -19.22529,4.76302 v 14.37566 c 0,7.66413 -6.19193,13.85606 -13.85606,13.85606 -7.66414,0 -13.85606,-6.19193 -13.85606,-13.85606 v -15.11177 c -0.1732,-0.0433 -0.3897,-0.0433 -0.56291,-0.0866 h -0.0866 v 0 c -10.56524,-1.6454 -27.92862,-6.19192 -39.6196697,-11.38795 -6.97133,-3.11761 -10.13224,-11.30135 -7.01463,-18.27268 3.11761,-6.97133 11.3013497,-10.13224 18.2726797,-7.01463 9.04974,4.02692 23.945,8.01054 32.56174,9.35284 13.81276,2.03511 25.20071,0.86601 32.90815,-2.29491 7.31773,-2.98771 10.65185,-7.31773 11.60445,-12.51375 0.8227,-4.58982 0.1732,-7.23114 -0.5629,-8.83324 -0.82271,-1.73201 -2.42481,-3.63722 -5.62903,-5.75893 -7.10123,-4.63312 -17.96958,-7.66413 -32.04214,-11.38795 l -1.2124,-0.3031 v 0 C 45.449587,120.93743 30.294527,116.91052 19.036477,109.54948 12.887847,105.52257 7.1289173,100.02344 3.5350073,92.40261 -0.10221271,84.65187 -0.83831271,75.99184 0.89368729,66.76889 4.0113073,50.22822 16.395157,39.48977 30.467727,33.90405 c 5.75892,-2.29491 12.08075,-3.85372 18.70568,-4.76302 V 13.85606 C 49.173407,6.19193 55.365327,0 63.029467,0 Z"
     id="path1-5"
     style="stroke-width:0.433002;fill:#ffffff;fill-opacity:0.1476073" />
  <path
     d="m 762.43038,628.52055 c 8.59338,0 15.53606,6.94267 15.53606,15.53605 v 17.33242 c 0.7768,0.0971 1.50505,0.1942 2.28186,0.33985 0.1942,0.0485 0.33985,0.0485 0.53405,0.0971 l 23.30408,4.27241 c 8.44773,1.55361 14.031,9.66148 12.4774,18.06066 -1.55361,8.39918 -9.66149,14.031 -18.06067,12.47739 l -23.06133,-4.22386 c -15.19621,-2.23331 -28.59605,-0.72826 -38.01479,3.01011 -9.41873,3.73836 -13.20564,8.88468 -14.07955,13.6426 -0.971,5.19486 -0.24275,8.10788 0.5826,9.90423 0.87391,1.89346 2.67026,4.02967 6.21443,6.40862 7.91368,5.19487 20.05122,8.59339 35.78148,12.7687 l 1.40795,0.3884 c 13.88535,3.68981 30.87791,8.15643 43.50096,16.40996 6.89412,4.51517 13.39984,10.63249 17.42951,19.17732 4.12676,8.69048 5.00067,18.40052 3.10721,28.7417 -3.34996,18.44907 -16.07011,30.78081 -31.84891,37.23799 -6.65138,2.71881 -13.88535,4.46661 -21.55628,5.34051 v 16.11866 c 0,8.59338 -6.94268,15.53607 -15.53606,15.53607 -8.59338,0 -15.53605,-6.94269 -15.53605,-15.53607 v -16.94401 c -0.1942,-0.0485 -0.43695,-0.0485 -0.63116,-0.0971 h -0.0971 v 0 c -11.84624,-1.84491 -31.31486,-6.94267 -44.4234,-12.76869 -7.81658,-3.49562 -11.36075,-12.6716 -7.86513,-20.48818 3.49561,-7.81658 12.67159,-11.36074 20.48817,-7.86513 10.14699,4.51517 26.84825,8.98179 36.50973,10.48684 15.48751,2.28186 28.2562,0.971 36.89813,-2.57316 8.20498,-3.34996 11.94335,-8.20498 13.01145,-14.031 0.92245,-5.14632 0.1942,-8.10788 -0.63115,-9.90423 -0.92246,-1.94201 -2.71881,-4.07822 -6.31152,-6.45718 -7.96223,-5.19487 -20.14833,-8.59338 -35.92713,-12.76869 l -1.35941,-0.33985 v 0 c -13.8368,-3.68982 -30.82936,-8.20498 -43.4524,-16.45851 -6.89413,-4.51517 -13.3513,-10.68104 -17.38097,-19.22587 -4.07821,-8.69048 -4.90356,-18.40052 -2.96156,-28.7417 3.49562,-18.54617 17.38097,-30.58661 33.15977,-36.84958 6.45718,-2.57316 13.5455,-4.32096 20.97368,-5.34052 V 644.0566 c 0,-8.59338 6.94267,-15.53605 15.53605,-15.53605 z"
     id="path1-5-2"
     style="font-variation-settings:normal;opacity:1;vector-effect:none;fill:#ffffff;fill-opacity:0.1476073;stroke-width:0.485502;stroke-linecap:butt;stroke-linejoin:miter;stroke-miterlimit:4;stroke-dasharray:none;stroke-dashoffset:0;stroke-opacity:1;-inkscape-stroke:none;stop-color:#000000;stop-opacity:1" />
</svg>
